<mxfile host="app.diagrams.net" modified="2021-06-10T22:04:51.931Z" agent="5.0 (Windows NT 10.0; Win64; x64) AppleWebKit/537.36 (KHTML, like Gecko) Chrome/91.0.4472.77 Safari/537.36" etag="NeF-UgZOPSXSBoIOxnJH" version="14.7.7" type="github">
  <diagram id="zPhPo8L74n6o1DhGrPCJ" name="Page-1">
    <mxGraphModel dx="868" dy="492" grid="1" gridSize="10" guides="1" tooltips="1" connect="1" arrows="1" fold="1" page="1" pageScale="1" pageWidth="850" pageHeight="1100" background="#FFE6CC" math="0" shadow="0">
      <root>
        <mxCell id="0" />
        <mxCell id="1" parent="0" />
        <mxCell id="MNY6S1j9Bs2xZ5pehF1f-1" value="" style="verticalLabelPosition=bottom;html=1;verticalAlign=top;align=center;strokeColor=none;fillColor=#00BEF2;shape=mxgraph.azure.user;" vertex="1" parent="1">
          <mxGeometry x="60" y="140" width="70" height="60" as="geometry" />
        </mxCell>
        <mxCell id="MNY6S1j9Bs2xZ5pehF1f-3" value="" style="image;html=1;image=img/lib/clip_art/computers/Virtual_Application_128x128.png" vertex="1" parent="1">
          <mxGeometry x="345" y="130" width="80" height="80" as="geometry" />
        </mxCell>
        <mxCell id="MNY6S1j9Bs2xZ5pehF1f-4" value="" style="image;image=img/lib/atlassian/Trello_Logo.svg;" vertex="1" parent="1">
          <mxGeometry x="350" y="340" width="70" height="70" as="geometry" />
        </mxCell>
        <mxCell id="MNY6S1j9Bs2xZ5pehF1f-5" value="" style="endArrow=classic;html=1;entryX=0;entryY=0.5;entryDx=0;entryDy=0;" edge="1" parent="1" target="MNY6S1j9Bs2xZ5pehF1f-3">
          <mxGeometry width="50" height="50" relative="1" as="geometry">
            <mxPoint x="140" y="170" as="sourcePoint" />
            <mxPoint x="250" y="145" as="targetPoint" />
          </mxGeometry>
        </mxCell>
        <mxCell id="MNY6S1j9Bs2xZ5pehF1f-6" value="" style="endArrow=classic;html=1;entryX=0.5;entryY=0;entryDx=0;entryDy=0;" edge="1" parent="1" source="MNY6S1j9Bs2xZ5pehF1f-3" target="MNY6S1j9Bs2xZ5pehF1f-4">
          <mxGeometry width="50" height="50" relative="1" as="geometry">
            <mxPoint x="400" y="280" as="sourcePoint" />
            <mxPoint x="450" y="230" as="targetPoint" />
          </mxGeometry>
        </mxCell>
        <mxCell id="MNY6S1j9Bs2xZ5pehF1f-7" value="Text" style="text;html=1;resizable=0;autosize=1;align=center;verticalAlign=middle;points=[];fillColor=none;strokeColor=none;rounded=0;" vertex="1" parent="1">
          <mxGeometry x="400" y="250" width="40" height="20" as="geometry" />
        </mxCell>
        <mxCell id="MNY6S1j9Bs2xZ5pehF1f-8" value="Text" style="text;html=1;resizable=0;autosize=1;align=center;verticalAlign=middle;points=[];fillColor=none;strokeColor=none;rounded=0;" vertex="1" parent="1">
          <mxGeometry x="200" y="140" width="40" height="20" as="geometry" />
        </mxCell>
        <mxCell id="MNY6S1j9Bs2xZ5pehF1f-9" value="User" style="text;html=1;resizable=0;autosize=1;align=center;verticalAlign=middle;points=[];fillColor=none;strokeColor=none;rounded=0;" vertex="1" parent="1">
          <mxGeometry x="75" y="200" width="40" height="20" as="geometry" />
        </mxCell>
        <mxCell id="MNY6S1j9Bs2xZ5pehF1f-10" value="To-Do App" style="text;html=1;resizable=0;autosize=1;align=center;verticalAlign=middle;points=[];fillColor=none;strokeColor=none;rounded=0;" vertex="1" parent="1">
          <mxGeometry x="405" y="190" width="70" height="20" as="geometry" />
        </mxCell>
        <mxCell id="MNY6S1j9Bs2xZ5pehF1f-11" value="Trello&amp;nbsp;" style="text;html=1;resizable=0;autosize=1;align=center;verticalAlign=middle;points=[];fillColor=none;strokeColor=none;rounded=0;" vertex="1" parent="1">
          <mxGeometry x="360" y="410" width="50" height="20" as="geometry" />
        </mxCell>
      </root>
    </mxGraphModel>
  </diagram>
</mxfile>
